<svg xmlns="http://www.w3.org/2000/svg" width="302.667" height="320" version="1.0" viewBox="0 0 227 240"><path d="M65.6 26.6c-1.2 3.2-.6 9.7 1.1 11.6 1.4 1.6 2 5.9 3.2 24.4C70.7 74.9 71.6 85 72 85c.3 0 1.2-2.2 1.9-5 1.1-4.2 1-7.7-.5-22.6-1.4-13.8-1.5-18-.6-19.5 1.5-2.3 1.6-8.4.2-11-1.3-2.4-6.5-2.6-7.4-.3zM90.3 27.6c-2 .9-4.7 10.2-3.4 11.8.9 1-4.5 21.2-22.6 84.5-18.3 64.4-23.5 83.6-22.7 84.9 1.3 2 5.2 2.8 6.6 1.4.6-.6 10.4-38.5 21.8-84.3 16.2-64.8 21.3-83.6 22.8-84.8 1.8-1.5 4.2-6.9 4.2-9.7 0-2.9-3.7-5-6.7-3.8zM112.7 27.6c-.4.4-.7 1.6-.7 2.6 0 1.5-.8 1.8-4.8 1.8-5.3 0-7.6 1.3-8.7 4.8-.7 2.3-.6 2.3 4.2 1.5 8.1-1.4 24.1-.6 32.5 1.6 22.7 5.9 41.8 21.5 52.2 42.6 6.8 13.7 8.1 19.4 8.1 37-.1 14.3-.2 15.4-3.3 24.5-4.6 13.3-10.1 22.1-20.1 32.1-10.1 10.1-18.9 15.5-32.1 20-14 4.7-32.4 5.2-46.8 1.3-2.2-.6-2.3-.4-2 2.7.3 3.2.5 3.5 5.8 4.6 3 .6 7.6 1.2 10.2 1.2 4 .1 4.7.4 5 2.4.4 3 5.2 3.2 5.6.1.3-1.9 1.2-2.2 7.8-2.8 14-1.1 29.7-7.6 43.1-17.7 3.4-2.6 6.5-4.4 6.8-3.8 1 1.5 4.5 1 5.2-.7.3-.9.2-2.4-.4-3.3-.8-1.2-.1-2.7 2.8-6.3 11-13.9 18.9-33.9 18.9-47.8 0-3.2.4-3.9 2.3-4.2 1.6-.2 2.2-1 2.2-2.8 0-1.8-.6-2.6-2.2-2.8-1.9-.3-2.3-1-2.3-4.2 0-14-7.9-33.9-19.1-48-2.1-2.7-3.4-5.2-2.9-5.5 1.6-1 1.2-4.5-.6-5.2-.9-.3-2.4-.2-3.2.4-1.2.7-3-.2-7.7-3.7-13.2-10-28.9-16.5-42.9-17.6-6.6-.6-7.5-.9-7.8-2.8-.3-2.1-3.7-3.4-5.1-2zM78.3 39.5c-2.8 1.2-3.3 1.9-3.3 4.9V48l4.5-2.2c4.5-2.2 5.1-3.2 3.9-6.2-.7-1.9-1-1.9-5.1-.1z"/><path d="M100.5 42.2c-2.7.5-5.5 1.4-6.1 2.1-1.2 1.3-3.5 9.7-2.7 9.7.3 0 3-.8 6.1-1.7 8.9-2.7 26.6-2.4 36.2.6 12.5 3.8 20.6 8.7 29.5 17.6 8.9 8.9 13.8 17 17.6 29.5 3.3 10.6 3.3 27.4 0 38-7.2 23.3-23.6 39.9-46.4 46.9-12.6 3.8-29 3.7-40.7-.3l-4-1.4v4.2c0 2.2.4 4.6.8 5.3 1.2 1.9 14.4 4.3 23.8 4.3 43.6 0 78.4-34.6 78.4-78 0-31.7-19.6-60.8-48.7-72.5-12.4-5-30.8-6.8-43.8-4.3zM60.3 50.8c-2.9 2.3-5.5 3.7-5.8 3.2-1-1.6-4.5-1.2-5.2.6-.3.9-.2 2.4.4 3.2.7 1.2-.2 3-3.7 7.7-10 13.2-16.5 28.9-17.6 42.9-.6 6.6-.9 7.5-2.8 7.8-3.1.4-2.9 5.2.2 5.6 1.9.3 2.2.9 2.2 4.5 0 5.6 3.3 19.2 6.6 26.9 3.2 7.7 11.1 20.1 12.3 19.4.5-.3 1.1-1.8 1.4-3.3.4-2.1-.4-4.3-3-8.5-8.5-14.2-11.8-27.5-11-45.7.9-22.5 8.2-38.6 24.7-54.9 6.3-6.2 7.1-7.3 6.8-10.2l-.3-3.3-5.2 4.1zM78.8 49.8c-2.1 1.2-2.8 2.4-2.7 4.7.1 7.4 2.7 7.8 4.8.6.7-2.3 1.5-4.9 1.8-5.7.7-1.8-.6-1.7-3.9.4z"/><path d="M59.8 63.7C43.6 80.3 36.1 100.2 37.3 123c.3 5.8 1.3 13.2 2.2 16.5 2 7.4 9.5 22.9 10.5 21.8 1.7-1.7 3.8-11 2.9-12.4-.5-.8-2.1-5-3.5-9.4-2.2-6.7-2.7-9.9-2.8-19.5-.1-6.6.5-13.8 1.2-17 2.1-8.3 9.5-22.8 14.6-28.7 4.3-4.8 4.6-5.5 4.6-10.7 0-3.1-.4-5.6-.8-5.6s-3.3 2.6-6.4 5.7zM105.4 98.4c-11.8 5.5-16.5 18.4-11 30.2s18.4 16.5 30.2 11 16.5-18.4 11-30.2-18.4-16.5-30.2-11zM77.7 108c-.3.8-1.3 4.2-2.1 7.5-1.5 5.6-1.4 8.9 1.5 50.5 1.7 24.5 3.6 45.1 4.1 45.7 1.4 1.7 5.3 1.6 6.7-.1 1-1.2.1-12.3-3.9-51.3-5.8-57.6-5.4-54.3-6.3-52.3zM62 170.1c-1.1 4.4-1 5.2.5 6.9 2.2 2.4 12.4 9.5 12.9 8.9.2-.2.2-2.7-.1-5.5-.5-4.8-1-5.5-6.3-10.3l-5.8-5.1-1.2 5.1zM59.6 180.6c-1.3 3.3-.5 5.3 3 8.2 3.8 3.1 13.3 8.7 13.8 8 .2-.1.1-1.7-.1-3.5-.4-2.5-1.5-3.8-4.9-5.8-2.5-1.5-6-4-7.8-5.6-2.8-2.4-3.5-2.7-4-1.3z"/></svg>