<svg xmlns="http://www.w3.org/2000/svg" width="1117.333" height="742.667" version="1.0" viewBox="0 0 838 557"><path d="M507.7 40.7c-.3.5-.8 9.7-1.2 20.5l-.7 19.7 5.1.7c4.3.6 5.1 1 5.1 2.8 0 7.4-3.1 96.3-3.6 101.3l-.6 6.3h-9.5l-.8 20.1c-.4 11-.3 20.5.1 20.9.5.5 7.9 1.4 16.4 2 21.3 1.6 29.8 2.5 57 6 4.1.5 9.5 1.2 12 1.5 4.4.5 11.3 1.4 25.4 3.5 3.8.6 7.2.8 7.5.5.3-.3 1.3-10.1 2.3-21.8.9-11.7 2.4-29.6 3.3-40L627 166l-5.5-7.9c-3-4.3-5.5-8.3-5.5-8.8s3.1-3.6 6.8-7l6.8-6.1 1.7-20.8c1-11.5 2.5-29.6 3.4-40.2.9-11 1.2-19.7.7-20.2s-4.3-1.3-8.4-1.9c-4.1-.6-10.6-1.6-14.5-2.1-26.3-4-52.9-7-82.5-9.5-20.5-1.7-21.7-1.7-22.3-.8zm17.8 3.7c19.7 1.4 43.4 4 77.5 8.6 24.4 3.4 27.3 3.9 28.3 4.9.8.8.7 4.7-.1 12.8-.7 6.5-1.7 18.5-2.2 26.8-1.5 22.3-2.9 34.8-4.2 37-.6 1.1-3.6 4.2-6.8 7-3.2 2.7-6 5.5-6.3 6.2-.4.7 2.1 5.2 5.4 10l6.1 8.8-.5 6.5c-.3 3.6-1.3 16.2-2.1 28-.9 11.8-2.1 25.6-2.6 30.7-.6 5.1-1 9.7-1 10.4 0 1.2-.6 1.1-15-1-26.7-3.9-59.3-7.7-78-9-6.3-.5-13.2-1.2-15.4-1.6l-3.8-.8.7-16.6c.4-9.1.9-16.9 1.1-17.2.2-.4 2.1-.3 4.1.2 2.1.5 4.1.9 4.4.9.4 0 .9-9.6 1.3-21.3.4-11.6 1.1-26.6 1.6-33.2.5-6.6 1.2-23.5 1.6-37.6l.6-25.6-5-.7-5.1-.7.6-16.7c.6-16.7 1.1-18.6 4.3-17.8.8.3 5.6.7 10.5 1z"/><path d="M516.7 56.7c-1.2 12.5-1 15 1.6 15.7 1.2.3 3.5.6 5.1.6h2.9l-.6 15.2c-.4 8.4-1.3 35.3-2.2 59.8-.9 24.5-1.9 46.7-2.3 49.5l-.7 5h-9L511 213c-.3 5.8-.3 10.9.1 11.3.3.4 6.6 1.3 14 1.8 26.2 2.1 47.2 4.5 80.4 9.3 1.7.2 3.7.7 4.6 1.1 1.5.5 1.8-.6 2.4-8.7.3-5.1 1.3-16.3 2-24.8.8-8.5 1.7-19.9 2.1-25.2l.6-9.6-6.6-9.7c-3.6-5.3-6.6-10.3-6.6-11 0-.7 3.8-4.8 8.4-9.1l8.3-7.9.7-12.5c.4-6.9 1.3-19.3 2.1-27.5.7-8.3 1.5-17.9 1.7-21.5l.3-6.4-12-1.8c-30.3-4.3-43.2-5.9-69.5-8.3-9.1-.8-18.8-1.7-21.6-2.1l-5.1-.5-.6 6.8zM578.5 79c16.1 1.8 15.5 1.6 15.5 5.8-.1 9-3 47.6-3.7 48.2-.5.4-4.2.3-8.3-.2-18.4-2-23.7-2.7-26.3-3.3-2.7-.7-2.8-1-2.3-5.4.3-2.5 1.1-14.1 1.7-25.6.7-11.6 1.6-21.3 2.1-21.6.5-.3 3.2-.2 6.1.2 2.9.4 9.7 1.3 15.2 1.9zm-4.2 75.7c9.1 1.1 14.1 2.1 14.4 2.9.7 2-2.6 50.7-3.5 51.6-.5.5-3.1.4-5.8-.1-2.7-.5-10.4-1.5-17.1-2.2-6.7-.7-12.4-1.7-12.6-2.3-.2-.6 0-6.7.4-13.6.5-6.9 1.1-18.2 1.5-25.3l.6-12.7h4.2c2.2 0 10.3.7 17.9 1.7z"/><path d="M561.6 84.9c-.3.9-.8 10-1.2 20.3l-.7 18.7 3.4.5c10.6 1.6 20.9 2.7 21.7 2.2.8-.5 2.5-22.4 2.6-34.6l.1-5.5-6-.7c-19.3-2.5-19.5-2.5-19.9-.9zm14.4 3.5 7.5 1.2-.4 11.4c-.2 6.2-.6 13.6-1 16.4l-.6 5.1-8-.3c-5-.2-8.4-.9-9-1.7-.7-.8-.8-4.4-.4-9.6.4-4.6.8-11.6.8-15.5.1-3.9.4-7.4.8-7.7.8-.9 1-.8 10.3.7zM557.7 159.7c-.3.4-.8 7.8-1.1 16.3-.4 8.5-.9 17.4-1.2 19.6l-.5 4.1 9.8 1.2c5.4.7 11 1.4 12.5 1.6 3.3.5 3.4.2 4.2-14.5.4-5.8.9-13.9 1.2-18.1l.7-7.6-3.9-.8c-2.2-.4-5.5-.9-7.4-1-1.9-.1-5.8-.5-8.6-.9-2.9-.4-5.4-.4-5.7.1zm18.1 4.9c3.7.6 3.6-.4 2.2 19.8-.4 7-1.3 13.3-1.9 13.9-1.1 1.1-15.2-.9-16.1-2.3-.6-.9.7-29.9 1.4-31.7.5-1.2 5.3-1.1 14.4.3zM312 41.6c-35.7 3.2-60.1 6.2-94.5 11.5-3.3.5-7.9 1.2-10.2 1.5-5.1.8-4.8-1.2-2.8 21.9.8 9.3 2.4 27.8 3.5 41s2.2 26 2.5 28.5c.3 2.5 1.4 15.3 2.5 28.5 6.4 79 5.7 73.1 9 72.8 1.4-.1 5.4-.6 9-1.2 13.3-2.1 27.8-4.2 36-5.2 26.5-3.1 39.6-4.5 53.4-5.5l8.8-.7-.6-21.6c-.4-11.9-1.1-29.7-1.6-39.6-.5-9.9-1.6-38.7-2.5-64-.8-25.3-1.7-51.1-2.1-57.3l-.6-11.2-3.1.2c-1.8 0-4.8.3-6.7.4zm5.4 4.2c.3.5 1 14.3 1.5 30.8.6 16.4 1.5 38 2.1 47.9 1.5 26.2 4.1 105.5 3.5 106.4-.2.5-4.6 1.1-9.7 1.4-16 1-43.8 4.3-74.3 8.8-16.3 2.4-17.3 2.4-17.9-.2-.5-2.3-2.9-30-4.1-46.9-.3-4.7-1-13-1.6-18.5-.9-9.5-2.9-33.5-6.4-78-.8-11-1.9-23.8-2.4-28.4-.5-4.7-.7-9-.4-9.7.4-1.1 4.1-1.9 19.6-4.4 9.4-1.5 41.4-5.6 49.7-6.4 2.5-.3 9.9-1 16.5-1.6 6.6-.7 12.2-1.4 12.4-1.6.8-.8 11-.4 11.5.4z"/><path d="M301 52.6c-14.9 1.4-56.3 6.5-75 9.2l-11.5 1.7.2 5c0 2.8 1.3 19.6 2.8 37.5 1.4 17.9 3.4 43.3 4.5 56.5 6.2 77.7 5.8 73.5 7.3 73.5.7 0 4.1-.5 7.7-1 11.2-1.7 20.3-3 25.5-3.5 2.8-.3 8.8-1 13.5-1.6 17.6-2.1 23.8-2.8 32.8-3.5 6.9-.5 9.5-1.1 10-2.2.3-.8 0-12.1-.7-25.1-.6-13-2.1-45.4-3.1-72.1-1.1-26.7-2.3-54.5-2.7-61.8l-.6-13.2-3.6.2c-2 0-5.2.3-7.1.4zm-17.6 25.6c.6 2.8 2.2 28.3 4.2 69.3.8 17 1.9 36.8 2.4 44 .4 7.1.6 13.3.4 13.6-.2.4-4.8 1.2-10.1 1.8-5.4.7-13.3 1.7-17.6 2.3-8.9 1.3-9.6.9-9.7-5.2 0-1.9-.9-16.3-2-32-5.7-83.3-6.1-89.3-5-90.4 1-1 3.1-1.3 24.5-3.6 5.5-.6 10.2-1.3 10.4-1.6 1-1 2.1-.2 2.5 1.8z"/><path d="M264.5 85.1c-2.2.4-5.9.8-8.1.8-4.3.1-5.6 1.3-4.9 4.8.3 1 1.1 12.8 2 26.3 2.2 34.7 5.7 85.4 6 85.8.3.3 18-1.6 21.8-2.4 3.2-.7 3.2-.8 1.7-25.4-.5-8.5-1.6-27.7-2.5-42.5-.8-14.9-1.7-31.8-2.1-37.8l-.6-10.7-4.7.1c-2.5.1-6.4.5-8.6 1zm10.3 19.6c.7 9.3 1.9 29.4 2.7 44.8.8 15.4 1.7 32.3 2 37.6l.6 9.6-4.3.6c-2.4.3-6.2.9-8.5 1.3-4.1.6-4.2.6-4.7-2.7-.3-1.9-1.2-15.3-2.1-29.9-.8-14.6-2.2-36.5-3.1-48.8-.8-12.2-1.4-23.5-1.2-25 .3-2.4.8-2.8 5.3-3.3 2.8-.3 6.6-.7 8.6-.7l3.5-.2 1.2 16.7zM174.5 46.1c-4.9 1.1-16.6 3.5-26 5.4-32.7 6.8-99 23.6-101 25.7-.2.2.5 6 1.5 12.8 1.1 6.9 2.5 16.4 3.2 21.2 1.3 9.6 1.5 9.8 7.5 7.6 2.1-.8 3.6-.9 4.3-.2.5.5 1.8 7.4 2.9 15.4 3.6 26.4 7 50.2 10.5 74.5 3.8 26.5 3.9 25.8-2.7 27.2-1.6.3-3.1 1.2-3.4 1.9-.5 1.3 5.2 41.3 6.1 42.1.2.2 5.3-.9 11.3-2.6 5.9-1.7 13.5-3.7 16.8-4.5 3.3-.8 11.4-2.9 18-4.6 6.6-1.7 15.2-3.8 19-4.6 11.5-2.5 14.8-3.2 19-4.2 10.7-2.6 34.9-7.2 37.4-7.2 4.8 0 5.5-1.9 4.3-11.3-.6-4.5-1.6-14.7-2.2-22.7-.6-8-1.7-20.6-2.5-28-.8-7.4-1.7-16.4-2-20l-.6-6.6-6.9-5.9c-3.8-3.3-7-6.6-7-7.4 0-.8 2.5-5.3 5.5-10.1l5.5-8.7-1.5-17.9c-.8-9.8-2-22.2-2.6-27.4-.6-5.2-1.6-16.7-2.2-25.4-.7-8.9-1.6-16-2.2-16.1-.5-.2-5 .6-10 1.6zm6.9 6.1c.7 4.5 3.4 32.5 4.6 47.8.6 6.9 1.5 16.4 2.1 21.3l1.1 8.7-6.8 10.6-6.8 10.7 3.5 3c8.9 7.8 12.9 12 13.4 14 .2 1.2 1.4 12.8 2.5 25.7 1.1 12.9 2.4 28 3 33.5.5 5.5 1.1 11.9 1.3 14.2.3 2.2.1 4.6-.2 5.2-.4.6-6.5 2.2-13.7 3.6-29.3 5.6-54.3 11.5-93.6 22.1-5.9 1.6-10.9 2.6-11.2 2.3-.7-.7-5.5-34.2-5-35 .2-.4 2.4-1.3 4.9-2 3.1-.9 4.5-1.9 4.5-3.1 0-1-1.3-11.1-2.9-22.5-1.6-11.5-5.3-37.5-8.1-57.8-6.3-45.9-5.5-41.9-8.8-41-7.8 1.9-8 1.9-8.6-1.2-.3-1.5-1.2-8-2-14.3-.8-6.3-1.8-12.9-2.1-14.6-.5-2-.2-3.4.7-4 2.5-2 51.5-14.8 81.8-21.4 1.9-.4 10.7-2.2 19.5-3.9 8.8-1.8 17.4-3.6 19-4 6-1.8 7.4-1.4 7.9 2.1z"/><path d="M154.5 60.6C127.8 66.1 82.9 77 65.6 82.1c-6.5 2-6.8 2.2-6.3 4.8.3 1.5 1.1 6.6 1.8 11.4.7 4.8 1.6 8.7 2.2 8.7.5 0 2.7-.5 4.9-1.2 4.9-1.5 5.3-1 6.7 9.1.5 4.2 2.2 16.1 3.6 26.6 1.4 10.4 3.7 26.9 5 36.5 1.4 9.6 3.6 26 5 36.5 1.4 10.4 2.8 20.6 3.1 22.6.4 3.1.2 3.7-2.1 4.7-1.4.7-3.4 1.2-4.5 1.2-1 0-2.2.5-2.5 1-1.1 1.8 2.7 24.1 4 23.6 1.6-.6 22.5-6.3 25.5-6.9 1.4-.3 7.9-1.9 14.5-3.6 6.6-1.8 13.1-3.4 14.5-3.6 1.4-.3 6.6-1.4 11.5-2.6 5-1.1 10.8-2.4 13-2.9 2.2-.4 9-1.8 15-3 6.1-1.2 11.3-2.5 11.7-2.9.8-.7-.9-23.4-3.7-48.6-.8-7.7-1.5-16-1.5-18.5 0-4.1-.4-4.8-5.7-9.8-3.2-3-7.5-6.8-9.5-8.5-2.1-1.7-3.8-3.5-3.8-3.9 0-.5 3.2-5.7 7-11.7 7.8-12 8-12.9 6-29.1-.5-4.1-1.9-17.8-3-30.4-1.1-12.6-2.3-23.3-2.6-23.8-.8-1.2-3.3-.9-20.9 2.8zm-7.6 36c2.1 15.4 4.9 45.9 4.3 46.5-.7.5-5.7 2-12.9 3.8-2.1.5-5.7 1.4-8.1 2.1-2.3.6-4.7.8-5.2.5-.5-.3-1.1-.1-1.5.5-.3.5-2.1 1-3.9 1-1.7 0-3.7.5-4.4 1.2-.8.8-1.5.9-2.3.1-1.1-1.1-8-53-7.3-54.8.3-.6 6.8-2.5 14.7-4.4 7.8-1.8 16.5-3.8 19.2-4.5 2.8-.7 5.3-1 5.7-.7.4.3 1.1 4.2 1.7 8.7zm9 81.6c2.2 18.6 4 37.2 4.1 41.8v4.6l-8.2 1.8c-4.6 1-12.8 2.9-18.3 4.2-5.5 1.3-10.3 2-10.8 1.5-.8-.8-7.9-54.2-7.2-54.9.1-.2 5.9-1.7 12.7-3.3 6.7-1.7 14.8-3.6 17.8-4.4 9-2.2 8.5-2.7 9.9 8.7z"/><path d="M136.5 96.1c-1.6.4-7.3 1.7-12.6 2.9-5.2 1.2-10 2.5-10.7 2.8-.7.5-.5 5.3.9 16.7 1.1 8.8 2.2 18.4 2.6 21.2.3 2.9.8 5.3 1 5.3.2 0 4.8-1.1 10.1-2.4 5.3-1.3 11.4-2.7 13.6-3l3.8-.7-.5-4.7c-.3-2.6-1.3-12.1-2.2-21.2-.9-9.1-2-16.8-2.4-17.1-.3-.3-1.9-.3-3.6.2zm1.7 17.9c2.1 16.4 2.2 21.9.6 22.4-5.2 1.5-17 3.7-17.4 3.3-1.1-1.1-4.4-34.1-3.5-35 1-1 15-4.6 17.1-4.3 1 .1 1.8 3.5 3.2 13.6zM146.5 175.9c-.3.6-2.1 1.1-4 1.1s-3.6.4-3.9.9c-.3.5-2.3 1.1-4.3 1.4-2.1.3-5.6 1-7.8 1.4l-4 .9.2 5.4c.2 3 1.3 12.8 2.5 21.8l2.1 16.2 3.6-.6c2-.4 6.1-1.3 9.1-2 3-.8 6.6-1.4 8-1.4 1.4 0 3.3-.7 4.4-1.5 1.7-1.3 1.8-2 .6-11.2-.6-5.4-1.7-14.9-2.3-21.2-1.1-10.6-2.4-14-4.2-11.2zm.2 14.7c2.3 17.8 2.9 24.4 2.4 25.2-.7 1-17.4 5.2-18.1 4.5-.5-.5-3.9-28.3-4-32.8 0-3 .2-3.1 6.3-4.4 3.4-.7 7.1-1.6 8.2-2.1 1.1-.5 2.4-.7 3-.6.5.1 1.5 4.7 2.2 10.2zM652.6 47.2c-.5 3.6-2.9 30.4-5.1 58.3-.8 9.9-1.9 21.6-2.5 26-.5 4.4-1.7 17.4-2.5 29-.9 11.5-1.8 21.7-2 22.5-.3.8-1.4 12.9-2.5 26.9-1.1 13.9-2.2 25.6-2.4 26-.3.4-.6 3.5-.7 7l-.3 6.3 4 1.4c2.1.8 4.9 1.4 6.1 1.4 1.2 0 6.8.9 12.5 2.1 5.7 1.2 11.4 2.3 12.8 2.6 2.9.5 10 2.1 15 3.3 1.9.5 7.1 1.6 11.5 2.6 4.4.9 14.1 3.2 21.5 5.1 7.4 1.9 17.9 4.6 23.4 5.9 5.4 1.4 10 2.4 10.2 2.1.2-.2 1.5-8.2 2.8-17.8 3.3-23.3 16.9-120 20.7-146.9 1.6-11.8 3.4-24.2 3.9-27.6 1.5-9.4 1.3-11.1-1.2-11.6-1.3-.3-10.4-2.6-20.3-5.2-30.6-8-97-22.6-102.9-22.6-.9 0-1.7 1.2-2 3.2zm14.6 2.8c2.4.6 11.3 2.4 19.8 4.1 8.5 1.7 17.1 3.5 19 3.9 1.9.4 6 1.3 9 1.9 11.1 2.3 58.5 14.4 59.4 15.2 1 .9.5 5.3-3.9 36.9-1.4 10.2-3.7 26.6-5.1 36.5-1.3 9.9-3.6 26.1-5 36-1.3 9.9-3.3 24.5-4.5 32.5-1.1 8-3.1 23-4.5 33.5-1.4 10.4-3 19.4-3.5 19.9s-6.6-.6-15.1-2.9c-7.9-2.1-15.9-4.1-17.8-4.5-1.9-.4-10.5-2.4-19-4.4-8.5-2-24.4-5.4-35.3-7.6-10.9-2.2-20.3-4.2-20.8-4.6-.7-.4-.8-2.8-.5-6.3 1.4-13.5 9.8-104 13.6-146.6 1-11.6 2.4-26.3 3.1-32.8l1.2-11.7h2.8c1.6 0 4.8.5 7.1 1z"/><path d="M662.6 61.2c-.3 2.4-1 10.4-1.6 17.8-.6 7.4-1.5 17.3-2.1 22-.9 8.3-2.9 29.7-6.9 75-1 12.4-2.2 23.8-2.5 25.5-.3 2.1-3.5 37.1-3.5 39.1 0 .5 3.9 1.7 6.9 2.1 3.4.4 20.5 3.8 27.6 5.5 2.2.5 6 1.3 8.5 1.8 2.5.4 10.4 2.2 17.5 3.9 14.5 3.5 14.1 3.4 24.5 6.2 12.8 3.5 11.8 3.5 12.4-.2.3-1.9 1.7-12 3.1-22.4 1.4-10.5 3.5-25.3 4.5-33 1.9-13.4 3.8-27.6 9.5-70 1.4-10.5 3.7-26.9 5-36.5 1.3-9.6 2.3-17.5 2.1-17.7-1.9-1.9-95.7-23.3-102.3-23.3-1.8 0-2.3.7-2.7 4.2zm52.3 29.7c9.5 2.2 17.7 4.3 18.2 4.8.7.7-3.5 36.7-11 95.8-1.2 8.8-2.5 20-3.1 25-1.8 16.2-1.7 15.8-5.3 15-7.8-1.7-10.7-2.4-17.7-4-4.1-.9-9.5-2.1-12-2.6-2.4-.5-4.8-1.3-5.2-1.7-.8-.8.5-15.2 5.7-63.7 1.4-12.7 3.2-29.8 4-38 1.8-18 3.5-32.5 4.1-34.3.2-.7 1.3-1 2.6-.7 1.3.3 10.1 2.3 19.7 4.4z"/><path d="M697.9 96.7c-.5 1.3-.9 3.9-.9 5.6 0 1.8-.7 9.1-1.5 16.2-1.6 13.1-3.6 31.1-7.5 68-1.1 11-2.5 22.6-2.9 25.8-.5 4.1-.5 6 .3 6.2 3.2.8 15.4 3.6 17.1 3.9 1.1.2 3.6.7 5.5 1l3.6.7 1.2-9.8c.6-5.4 2.3-19.3 3.7-30.8 1.4-11.6 3.4-28.4 4.5-37.5 1-9.1 2.6-21.9 3.5-28.5.8-6.5 1.5-13.1 1.5-14.6 0-2.8 1.6-2.2-19.3-7l-7.8-1.7-1 2.5zm15.9 4.8c8.5 2 8-.3 5.2 24-1.1 9.3-2.9 24.4-4 33.5-5.6 48.1-7 59.3-7.4 59.7-.2.3-4.2-.4-8.8-1.4-8.3-2-8.3-2-8.6-5.4-.2-1.9.3-9.3 1.2-16.4 1.6-12.6 3.1-26.1 6.1-55 1.9-18 4.5-38.6 5.1-40.3.2-.7 1.2-1.1 2.1-.9 1 .3 5.1 1.3 9.1 2.2zM361.5 52.4l-23 1.1.2 11c.2 6 .6 14.7.9 19.2l.6 8.3h3.8c2.1 0 4.2.5 4.6 1.2 1 1.6 3.5 99.1 2.6 100-.4.4-2.5.8-4.7 1l-4 .3.3 15.5c.2 8.5.5 17.2.8 19.2.5 3.6.7 3.7 5.2 4 2.6.2 6.8 0 9.3-.4 2.5-.3 14-.9 25.5-1.2l20.9-.5v-38.6l-4-.5-4-.5-.3-20.8c-.1-12.6.1-20.7.7-20.7.5 0 1.3.9 1.6 2 .6 1.9 1.5 2 17 2 15.4 0 16.5-.1 17.5-2 .6-1.1 1.5-2 2-2 1.1 0 1.4 37.7.4 40.4-.4 1.1-1.9 1.6-5 1.6H426l.2 19.7.3 19.8 24.5.1c13.4.1 26.9.5 30.1.8l5.6.7.6-10.7c.4-5.9.7-14.6.7-19.4v-8.7l-4.1-.7-4.2-.7.8-38.7c.4-21.3 1-44.1 1.4-50.7l.6-12h9l.6-19c.3-10.5.5-19.1.5-19.2-.3-.4-40.8-2.3-48.3-2.3-6.1 0-7.5.3-7.9 1.7-1.9 5.9-20 44.3-20.9 44.3-.8 0-19-38.5-20.9-44.3-.6-1.9 1.5-1.9-33.1-.3zm31.9 8.1c1.6 3.3 7.1 15 12.3 26 5.1 11 9.6 20 9.9 20 .3 0 5.7-11 11.9-24.5 6.3-13.5 11.9-25.3 12.5-26.4 1.1-1.7 2.2-1.8 17.8-1.2 9.2.4 19.7.9 23.5 1.3l6.7.6-.2 15.6-.3 15.6-4.6.3-4.6.3-.6 28.7c-.4 15.8-.8 40.2-.9 54.2l-.3 25.5 3.8.3 3.7.3v15.5c0 11.8-.3 15.6-1.3 16-.7.2-13 .1-27.3-.3l-25.9-.8v-32l4.8-.3 4.7-.3v-24.8c0-13.6.3-27.6.6-31 .4-3.6.3-6.1-.3-6.1-.5 0-2.9 4.1-5.3 9l-4.4 9.1-13.9-.3-13.9-.3-4.7-9-4.6-9-.3 29.5c-.1 16.2 0 30.4.2 31.5.4 1.6 1.3 2 4.3 2h3.8l.3 16 .2 16.1-26.6 1.2c-14.7.7-26.8 1.1-27 1-.1-.2-.4-7.5-.6-16.3l-.3-16 4.8-.3 4.7-.3-.5-22.2c-.3-12.2-1-35-1.5-50.7-.5-15.7-.8-29.9-.7-31.5.2-2.9 0-3-4.8-3.5l-5-.5-.5-15c-.3-8.3-.2-15.5.3-16 .7-.9 36.5-3.4 44.2-3.1 2.6.1 3.3.8 5.9 6.1z"/><path d="M358.5 61.7c-4.9.2-9.2.8-9.5 1.2-.3.5-.4 5.1-.2 10.2l.3 9.4 4.4-.3c4-.4 4.5-.1 4.9 2 .3 1.2 1 27.3 1.6 57.8.7 30.5 1.4 55.8 1.7 56.3.2.4.1 1.6-.2 2.7-.5 1.6-1.5 2-5.1 2h-4.5l.3 10.2c.3 10.3.3 10.3 2.8 10.1 1.4 0 11.2-.4 21.8-.9l19.3-.7-.3-10.1-.3-10.1-3.8-.1c-2-.1-3.9-.3-4.1-.5-.2-.2-.6-20.9-1-45.9-.6-39.3-.5-45.3.8-44 .7.8 5.1 8.8 9.6 17.8l8.2 16.3 10.5-.3 10.4-.3 8.9-17c4.9-9.4 9.2-16.9 9.7-16.7.8.2.4 88-.4 89.4-.2.5-2.4.8-4.9.8H435V221.7l21.3.5c11.6.3 21.3.5 21.4.4.1-.1.5-4.6.9-9.9l.7-9.7h-3c-6.4 0-6.1 3-5.2-55.5.5-29.2 1.2-55.8 1.5-59.3l.6-6.2h4.3c5.2 0 5.5-.5 5.5-11.4v-8.3l-6.1-.7c-3.4-.3-12.2-.6-19.6-.6h-13.4l-6.8 14.2c-3.7 7.9-9.9 21.2-13.6 29.5-3.8 8.4-7.4 15.3-8 15.3-.5 0-3.7-6-7-13.3-3.3-7.3-9.4-20.5-13.7-29.5L387.1 61l-9.8.2c-5.4.1-13.8.4-18.8.5zM413.6 255.9c-.4.5-.2 1.2.4 1.6 1.7 1.1 1.2 14.6-.6 16.6-1.5 1.6-1.3 2.2 1.7 7.3 1.9 3.1 3.6 5.6 4 5.6.3 0 2-2.3 3.8-5.2 2.9-4.6 3.1-5.4 2-8-.7-1.7-1-5.9-.7-10.8.3-4.4.1-8-.4-8s-.8 5.3-.7 11.8c.2 9.9-.1 12.2-1.6 14.5-2.1 3.3-2.6 3.3-4.5.4-1.1-1.7-1.4-5-1.1-13.8.2-7.2-.1-11.9-.7-12.3-.6-.3-1.3-.2-1.6.3zM384.2 265.7c.3 9.6.4 9.8 2.8 10.1 3.6.6 4.2 1.2 12.9 15.1l7.9 12.6.2 12c.2 15.8.3 15.2-2 15.8-1.8.5-2 1.4-2 10.1v9.5l14.6.3c10.1.2 14.9-.1 15.5-.9 1.2-1.4.7-18.8-.5-18.8-.5 0-.8 3.9-.7 8.7.3 10.5 1 10-15.4 9.6l-11-.3-.3-8.2c-.3-7.4-.1-8.2 1.8-8.8 1.9-.6 2-1.4 2-14.1 0-8.3-.4-14.4-1.2-15.7-.6-1.2-4.7-7.9-9-14.9-6.6-10.6-8.4-12.7-10.6-13-2.7-.3-2.7-.3-3-9.6-.2-5.2-.7-9.2-1.3-9.2-.6 0-.9 3.7-.7 9.7z"/><path d="M450 256.9c2.3.6 2.5 1.2 2.8 8 .3 7.7-.6 10.1-4 10.1-1.3 0-4.5 4-10.8 13.7l-9 13.8-.2 11.2c-.1 6.2-.2 12.7-.2 14.5-.1 1.7.4 3.3.9 3.5.6.2.9-4.8.7-13.9l-.2-14.3 9.1-13.8c8.2-12.4 9.4-13.7 12-13.7h2.9v-20l-3.2.1c-3 .1-3.1.2-.8.8z"/><path d="M389 265.5c0 3.8.4 4.7 2.3 5.4 1.6.6 5.8 6.4 12 16.3l9.7 15.4v16.3c0 15.6-.1 16.3-2 16.8-1.8.5-2.1 1.2-1.8 5.5l.3 5h20l.3-4.6c.3-4.1.1-4.7-2.2-5.6l-2.6-1v-32.5l10.3-15.7c6.7-10.5 10.8-15.8 12-15.8 1.4 0 1.7-.9 1.7-5v-5.1l-10.7.3-10.8.3v4.5c0 4.2.2 4.5 2.8 4.8 1.5.2 2.7.8 2.7 1.3 0 1.3-13.1 20.9-14 20.9-.9 0-13-19.6-13-21 0-.6 1.1-1 2.4-1 2.9 0 3.3-.8 2.8-6.1l-.4-3.9H389v4.5zM514.4 352.6c-.3 1.3-.7 9-.7 17.1l-.2 14.8 3.5.5 3.5.5-.3 8.5c-.2 4.7-.7 13.4-1.2 19.5-.5 6-1.4 20.2-2 31.5-.6 11.3-1.3 22.4-1.6 24.7-.5 4.2-.6 4.3-4.4 4.3h-3.8l-.6 6.7c-1.3 14.9-1.8 26.3-1.2 26.3 1.1 0 28.1 4 34.1 5 13.9 2.5 15.6 2.7 16.1 1.9.4-.7 3.3-27 3.4-31.1 0-.3-1.3-.9-3-1.3-1.6-.4-3.2-1-3.4-1.4-.7-1.1 1.4-26.4 2.2-27.3.7-.6 20.6 3.3 21.6 4.3.6.6-1 20.3-2 24.7-.4 2-1 2.3-4.1 2-3.1-.2-3.7.1-4.4 2.2-1.1 3.8-3.2 27.7-2.6 29.3.3.8 2.3 1.8 4.4 2.1 2.1.4 13 3 24.2 5.7 11.1 2.8 20.5 4.8 20.8 4.5.6-.5 4.2-26 4.3-29.8 0-2.2-.6-2.8-3.1-3.3l-3.2-.7.6-5.7c.3-3.1 1.5-12.4 2.6-20.6 1.1-8.3 3.1-24.2 4.6-35.5 3-23.7 3.7-26.7 5.6-26.1.8.2 2.5.5 3.9.5 2.5.1 2.5-.1 4.2-12.9.9-7.2 1.9-14.2 2.2-15.7.4-2 .1-3-1.2-3.7-2.6-1.3-41-10.7-55.7-13.6-25.2-4.9-39.2-7.2-55.8-9.3-6.5-.8-6.8-.8-7.3 1.4zm24.1 3.5c21.9 3.7 29.7 5.1 48 9 15.8 3.4 17.8 3.8 22 5 3.9 1 5.6 1.4 16.5 4.1l5.5 1.4-.2 7.4c-.3 10.3-2.5 20.5-4.4 20.3-.8 0-2.5-.3-3.9-.5l-2.5-.3-2.2 17c-1.1 9.3-3.1 24.6-4.3 34-1.2 9.3-2.8 21.5-3.5 27-2 14.1-2 14.4 1.5 15.6 3.5 1.3 3.5 1.5 1.7 16.7-.7 5.6-1.7 10.6-2.3 11.1-.5.6-5.3-.2-12.4-2.1-13.4-3.5-17.4-4.5-21.5-5.3-1.6-.3-4.7-1.1-6.9-1.7l-3.8-1.2.6-7.5c.4-4.2.9-10.2 1.3-13.4l.6-5.8 4.1.3 4.1.3 1.1-10.5c.6-5.8 1.5-13 1.9-16.2.6-5 .5-5.7-1.3-6.2-2.9-1-25.6-5.5-25.9-5.2-.7.6-3.4 30.9-2.9 32.2.3.8 1.7 1.4 3.1 1.4 1.4 0 2.8.6 3.1 1.3.3.8-.1 7-.8 13.8l-1.3 12.4-4.5-.1c-2.5 0-7.6-.6-11.5-1.3-7.6-1.4-14.8-2.5-23.9-3.7l-5.8-.7.7-13.1c.4-7.2.9-13.4 1.2-13.9.2-.4 2.1-.7 4.2-.7h3.7l1.2-16.8c.7-9.2 1.9-27.5 2.7-40.7.8-13.2 1.6-26.8 1.9-30.2l.5-6.1-3.7-.9-3.7-.9.4-12.9c.2-7.2.6-13.4.8-13.9.6-.9 10.9-.2 20.8 1.5z"/><path d="M522.4 360.1c-.2.4-.7 4.4-1.1 8.7l-.6 7.9 3.7.7c2 .4 4 1.4 4.3 2.2.3.8-.2 10.8-1.1 22.2-.9 11.4-2 28.1-2.6 37.2-.5 9.1-1.5 22.7-2.2 30.3l-1.2 13.8-4.1-.3-4-.3-.5 8.4c-.3 4.9-.1 8.6.5 9.1.6.4 3.5 1 6.5 1.3 5.3.6 11 1.5 23 3.6 3 .5 5.7.7 6 .4.2-.2.8-4.1 1.1-8.6.8-8.7.4-9.7-3.8-9.7-1.3 0-2.3-.4-2.3-.9 0-3.5 3.2-38.9 3.6-40.8.5-1.9 1.1-2.3 2.8-1.9 1.1.3 6.3 1.3 11.5 2.2 5.1.9 12.3 2.3 16 3.2l6.6 1.7-.3 8c-.2 4.4-1.1 14.1-2 21.5l-1.7 13.5-4.1-.3-4.1-.3-.7 6.2c-.3 3.4-.6 7.2-.6 8.5 0 2.4.3 2.5 12 5.4 1.9.5 8 2 13.5 3.4s10 2.4 10.2 2.3c.4-.4 2.3-13.1 2.3-15.4 0-1.6-.8-2.5-2.7-2.9-3.3-.8-4.4-2.2-3.7-4.9.2-1.1 2.5-18.2 4.9-38 2.5-19.8 5.2-41.4 6.1-47.9.8-6.5 1.7-12.3 2-12.8.3-.5 2.3-.7 4.3-.3l3.7.6 1.1-8.3c.6-4.6 1-8.5.7-8.7-.4-.4-8.4-2.7-14.4-4.1-27.9-6.7-45.1-10.2-63-13-18.1-2.8-25.1-3.6-25.6-2.9zm41.8 23.9c2.4.6 9.5 2 15.8 3.3l11.5 2.2-.1 4c-.2 8.2-3.6 37-4.5 38.1-.6.8-2.5.7-6.6-.2-11.5-2.4-20.9-4.3-24.8-4.9-6.8-1-6.6-.3-5-18.7 2.2-25.2 2.1-24.8 6.1-24.8 1.9 0 5.3.5 7.6 1z"/><path d="M555.9 403.3c-.8 8.3-1.4 15.6-1.4 16.1 0 1.2 12.9 4.4 24.1 6.1 3.9.6 4.2.5 4.7-2.2 1.4-7.1 3-28.4 2.1-29.2-.5-.5-6.1-1.8-12.4-3-6.3-1.2-12.5-2.4-13.6-2.7-2.1-.4-2.2.2-3.5 14.9zm14.8-10.2c12.1 2.8 12.3 2.9 12.3 6.7 0 5.5-2.2 21.6-3 22.5-.7.7-8.4-.4-19.9-2.9l-2.3-.5.7-12.7c.4-7 .9-13 1.2-13.5.6-1 5.5-.9 11 .4zM280.5 357.7c-1.1.2-8.7 1.7-17 3.3-23.3 4.6-65 15.3-66 17-.3.6.1 5.1.9 10.2.9 5.1 2.2 14.2 3.1 20.3.8 6 2.6 18.6 4 28 1.4 9.3 4.8 32.7 7.6 52 2.8 19.2 5.3 36.7 5.6 38.7.3 2.1 1.1 3.8 1.8 3.8.6 0 5.8-1.3 11.6-2.9 18.6-5.2 41.8-10.6 58.7-13.7l9.3-1.7-.6-7.6c-.4-4.2-1.3-14.4-2.1-22.6-.8-8.3-1.4-15.3-1.4-15.6 0-.7-1.5-.5-17.9 2.7-6.8 1.4-12.8 2.7-13.4 3.1-.5.3-.7 3-.3 6.3.8 6.5.5 6.9-5.3 8-2 .4-4.4 1.1-5.3 1.5-2.7 1.1-3.5-2.1-5.8-22.5-1.1-10.2-2.9-25.9-4-35-1.1-9.1-2.3-19.7-2.6-23.7-.7-7-.6-7.2 1.7-7.8 5.8-1.3 11.9-2.2 12.4-1.7.3.3.5 2.4.6 4.6.1 7.6-.2 7.5 13.9 4.9 6.9-1.3 14.3-2.9 16.5-3.7 3.5-1.1 4-1.6 3.8-4.2-.1-1.6-1-11.8-1.9-22.7-1.9-21.6-1.4-20.4-7.9-19zm3.9 8c2.2 22.7 2.8 30.2 2.5 32.7-.4 2.9-.5 3-12.8 5.3-6.8 1.3-12.9 2.2-13.6 1.9-.7-.2-1.6-3-1.9-6-.8-5.9-1-6.1-6.6-4.7-1.9.5-6.1 1.4-9.2 2.1l-5.8 1.3.5 3.6c1.2 8.9 3.7 28.9 7.1 57.6 2 17.1 3.9 31.3 4.3 31.7.3.4 4.7-.3 9.6-1.5l9-2.2v-13l9.5-2.2c5.2-1.2 11.2-2.2 13.3-2.2 3.5-.1 3.7 0 3.7 3.1 0 1.8.7 10.6 1.7 19.6 1.1 10.2 1.3 16.5.7 17.1-.7.8-7.8 2.4-19.4 4.5-1.4.3-4.7 1-7.5 1.6-2.7.6-6.8 1.5-9 1.9-3.2.7-15.5 3.9-30 7.8-1.1.3-3.6.7-5.5 1l-3.5.5-1.9-12.4c-1-6.8-2.6-18.4-3.6-25.8-1.8-13.6-9.5-67.5-10.5-74-1.8-11.5-4.5-31.7-4.5-33.6 0-1.7.9-2.5 3.3-3.3 3.8-1.2 17.5-4.9 23.2-6.2 2.2-.6 5.6-1.4 7.5-1.8 7.9-1.9 27.8-6.4 32.5-7.3 18-3.5 16.2-3.8 16.9 2.9z"/><path d="M267.5 368.1c-15.6 3.3-17.8 3.8-25 5.4-12.2 2.8-13.8 3.3-21.5 5.4-4.1 1.2-9 2.4-10.8 2.8-1.8.3-3.5 1-3.8 1.5-.3.4.4 7 1.5 14.6 1.1 7.5 4.3 30.1 7.1 50.2 8.9 63.2 10 71.5 10.5 72.7.3.8 2.9.5 9.2-1.3 4.8-1.3 11.5-3.1 14.8-3.9 17.8-4.2 23.8-5.5 32-7.1 5-.9 9.3-2 9.7-2.3.7-.6-1.4-29.7-2.2-30.4-.3-.2-4.1.3-8.5 1.2l-8 1.7.3 6c.3 7.3-.2 7.8-8.3 9.2-3.3.6-8 1.6-10.5 2.2-9.9 2.5-9.2 3.3-11.2-12-1-7.4-2.7-20.9-3.8-30-1.1-9.1-3.1-25.9-4.5-37.3-1.4-11.5-2.3-21.2-2.1-21.6.5-.8 5.5-2.4 12.6-4 2.5-.5 6.8-1.5 9.6-2.2 7-1.7 8-1.1 8.6 5 .3 2.8.8 5.4 1.1 5.7.5.6 16.6-2.2 17.4-2.9.2-.3-.2-7.1-.9-15.3-1-11.8-1.6-14.9-2.8-15.1-.8-.1-5.5.7-10.5 1.8zM387 366.6c-23.5 1-83.1 7.2-84.8 8.9-.3.2-.1 6.8.3 14.6l.7 14.1 3.4-.5c1.8-.3 3.6-.2 3.8.1.2.4.9 8.8 1.5 18.7.6 9.9 1.6 21.8 2.1 26.5.5 4.7 1.2 13.7 1.6 20.1l.6 11.5-3.3 1c-1.9.5-3.4 1.4-3.4 1.9.1.6.5 6.7.9 13.7l.8 12.8h3.2c1.7 0 5.8-.5 9.1-1s10.9-1.5 16.9-2.1c15.5-1.5 15.1-1.3 14.9-9-.1-3.5-.4-9.9-.8-14.2-.7-7.6-.8-7.7-3.4-7.5l-2.6.3-.8-11.4c-.4-6.3-.4-11.7 0-12.2 1.5-1.3 17.3-2.6 18.3-1.4.7.8 1.4 15.5 1.1 22.2-.1.7-1.5 1.6-3.3 2.1l-3.1.8.2 13.4c.1 7.4.6 13.8.9 14.2.4.4 4.6.3 9.2-.2 4.7-.5 13.3-1 19.2-1 5.9 0 11.8-.4 13.2-1 2.4-.9 2.6-1.4 2.6-7.7 0-3.8-.3-9.8-.6-13.5-.6-6.3-.8-6.6-3.5-7.2l-2.9-.6v-16.7c0-9.3-.3-26.6-.7-38.5l-.6-21.6 3.4-.4 3.4-.3v-29l-5-.1c-2.7 0-8.4.1-12.5.2zm14.9 2.8c.8.9 1.1 5.1.9 12.2l-.3 10.9-3.2.3-3.3.3v10.8c0 5.9.3 24.4.7 41l.6 30.2 2.7.6 2.8.5.4 11.2c.3 6.1.2 11.4-.1 11.8-.9 1-36.5 3.2-38.6 2.4-1.3-.5-1.5-2.3-1.3-12.3l.3-11.8 3.4-.3 3.4-.3-.6-9.7c-.4-5.3-.7-11.6-.7-14V449l-7.7.1c-4.3 0-9.8.4-12.3.7l-4.5.7.2 5.5c.1 3 .4 9.4.8 14.2.7 8.8.7 8.8 3.4 8.8s2.8.3 3.5 6.1c.8 8.4.8 17.9-.1 18-.5.1-1.9.3-3.3.5-7.9.9-20.5 2.4-27 3.3-4.1.5-7.8.6-8.2.3-.4-.4-.8-5.9-1-12.2l-.3-11.4 3-.6c2.9-.5 3-.7 2.7-5-.5-9.2-3.3-48.9-4.2-60.5-.5-6.6-1-13.1-1-14.4 0-2.1-.3-2.3-3-1.8-4 .9-4.6-.6-5.4-13.1-.7-12.1-1.7-11.2 14.4-13.1 5.8-.7 13.2-1.6 16.5-2.1 7.4-1.1 29.5-2.9 47.5-3.9 7.4-.5 14.5-.9 15.6-1 1.2 0 2.7.5 3.3 1.3z"/><path d="M378 374.1c-25.8 1.4-67.6 6-69.1 7.6-.4.5-.2 3.8.3 7.5l1 6.8h3.4c3.4 0 3.4 0 3.4 4.6 0 2.5.5 8.7 1 13.7 1.6 14.5 4.9 71.1 4.2 71.9-.4.3-1.8.8-3.2 1-2.4.3-2.5.5-2.2 7.8.2 4.1.5 7.7.8 7.9.2.2 3.4-.1 7.1-.7 3.8-.6 10.7-1.6 15.6-2.3l8.7-1.1v-3.7c0-2-.3-5.3-.6-7.4-.5-3-1.1-3.7-3-3.7-1.2 0-2.6-.5-2.9-1-1.2-1.9-2.7-35.2-1.7-36.2 1.3-1.3 30.3-4.1 31.4-3 .5.5 1 9.1 1.1 19.3l.2 18.4-3 .5c-2.9.5-3 .7-3.3 6.9-.2 3.5.1 6.8.6 7.3s7.6.6 16 .2l15.2-.7V480h-6v-12.3c0-6.7-.5-26.7-1.1-44.5-.9-25.1-.9-32.5.1-33.7.6-.8 1.5-1.4 1.8-1.3 3.9.5 4.2-.1 4.2-7.7V373l-2.7.2c-1.6.1-9.3.5-17.3.9zm-6.7 26.6c.4 5.8.7 14.3.7 18.9v8.2l-6.7.6c-3.8.3-10.8 1-15.8 1.6-4.9.5-9.3.6-9.6.2-.4-.4-1.2-8.5-1.8-18.1-.8-13-.8-17.7 0-18.7.7-.9 3.4-1.4 7.3-1.5 3.3 0 8.1-.4 10.6-.8 2.5-.5 6.8-.9 9.6-1l5.1-.1.6 10.7z"/><path d="M356 395.7c-3 .1-7.4.5-9.7.9l-4.3.5v4.8c0 2.6.3 9 .7 14.1l.6 9.3 10.1-.7c15.7-1 15-.5 14.2-9.4-.3-4.1-.6-10.4-.6-13.9 0-6.3 0-6.3-2.7-6.1-1.6.1-5.3.3-8.3.5zm9 13.9c0 8.3-.3 11.6-1.2 11.9-.7.2-5.1.6-9.8.7l-8.5.3-.8-10.9c-.5-6.8-.4-11.3.2-11.9 1-1 16.7-2.6 18.9-1.9.9.3 1.2 3.6 1.2 11.8zM453.2 381.2l.3 14.3 2.8.3c1.5.2 2.7.9 2.8 1.5.2 3.6-.4 44.6-1 59.2l-.6 17h-13l-.3-14.2c-.3-16.9 1.1-15.5-16.2-15.1l-11.5.3-.3 28.3c-.2 22.1 0 28.3 1 28.6.7.3 14.1 1 29.8 1.6 15.7.7 32.6 1.5 37.5 2 5 .4 9.3.5 9.6.1.4-.3.9-6.7 1.2-14.3l.4-13.6-3-.6-3-.6.7-16.3c1.3-31.9 2.7-58.2 3.1-59.5.2-.6 1.8-1.2 3.4-1.2 2.8 0 3-.3 3.5-4.3 1-8 1.3-23.8.5-24.3-1.2-.7-32.5-3.4-40.7-3.4h-7.3l.3 14.2zm34.6-10 11.2 1.1-.1 8.1c0 4.5-.3 9.9-.7 12.1-.7 3.6-1 4-3.4 3.7-1.4-.2-2.9.2-3.3.8-.6 1-3.5 59.3-3.6 73.4-.1 6.8.7 8.5 3.9 8.6.9 0 1.2 3 1.2 11.5 0 9.4-.3 11.7-1.5 12.1-.9.4-9.1.1-18.3-.6-9.2-.7-25.2-1.5-35.7-1.9l-19-.6-.3-24.5c-.1-13.5 0-25.5.3-26.8.5-2.2.8-2.3 11.8-2l11.2.3.2 13.9c.1 10.3.5 14.1 1.5 14.7.7.5 4.7.9 8.9.9h7.6l.6-15.8c.4-8.6 1-27 1.3-40.9l.7-25.2-3.4-.3c-3.3-.3-3.4-.4-3.7-5.3-.2-2.8-.1-8.3.3-12.3l.7-7.3 10.1.6c5.6.3 15.3 1.1 21.5 1.7z"/><path d="M459.8 379.4c-.1 3.1-.2 6.4-.2 7.3-.1 1.2 1 1.9 3.2 2.4 1.8.4 3.5.9 3.7 1.1.3.2 0 15-.6 32.9-.5 17.8-1.1 37.9-1.3 44.7-.2 6.8-.7 12.6-1 12.9-.3.3-6.3.2-13.3-.3l-12.8-.9v-28h-15l-.3 21.7-.3 21.7 2.6.7c1.4.3 4 .4 5.8.1 3.8-.5 41.2 1 51 2.2 7.8.9 8.1.6 7.5-8.9-.3-4.8-.6-5.5-2.8-6-2.5-.6-2.5-.6-2.3-11.6.4-21.2 3.1-78.3 3.7-79.3.4-.6 2-.8 3.6-.4 2.8.5 3 .3 3-2.3 0-1.6.3-5.2.6-8l.6-5.1-7.3-.7c-4.1-.4-12-.9-17.6-1.3l-10.3-.6-.2 5.7z"/></svg>